# xmcd
#
# Track frame offsets: 
#        150
#        15006
#        31578
#        48049
#        62586
#        75744
#        94810
#        111447
#        126441
#        144120
#        161585
#        179133
#        194870
#        213611
#        230325
#        247165
#        262606
#
# Disc length: 3786 seconds
#
# Revision: 0
# Processed by: cddbd v1.5.2PL0 Copyright (c) Steve Scherf et al.
# Submitted via: ExactAudioCopy v1.0b3
#
DISCID=e40ec811
DTITLE=Kenny Rogers - A Love Song Collection
DYEAR=2008
DGENRE=Country
TTITLE0=A Love Song
TTITLE1=Love Will Turn You Around
TTITLE2=You Decorated My Life
TTITLE3=Love the World Away
TTITLE4=You Are So Beautiful
TTITLE5=She Believes In Me
TTITLE6=Don't Fall In Love with a Dreamer (with Kim Carnes)
TTITLE7=Share Your Love with Me
TTITLE8=Lady
TTITLE9=We've Got Tonight (with Sheena Easton)
TTITLE10=All My Life
TTITLE11=Love Is What We Make It
TTITLE12=Islands in the Stream (with Dolly Parton)
TTITLE13=Crazy
TTITLE14=Buy Me a Rose (with Alison Krauss and Billy Dean)
TTITLE15=I Can't Unlove You
TTITLE16=Through the Years
EXTD=
EXTT0=
EXTT1=
EXTT2=
EXTT3=
EXTT4=
EXTT5=
EXTT6=
EXTT7=
EXTT8=
EXTT9=
EXTT10=
EXTT11=
EXTT12=
EXTT13=
EXTT14=
EXTT15=
EXTT16=
PLAYORDER=
